<?xml version="1.0" encoding="utf-8"?>
<svg version="1.1" xmlns="http://www.w3.org/2000/svg" xmlns:xlink="http://www.w3.org/1999/xlink" x="0px" y="0px"
	 viewBox="0 0 140 50" style="enable-background:new 0 0 140 50;" xml:space="preserve">
<g id="Layer_1">
	<g>
		<path d="M81.8,15.6c3.8,0,6.8-3.2,6.8-7.1c0-4-3-7.1-6.8-7.1S75,4.5,75,8.5C75,12.4,78,15.6,81.8,15.6z M131.9,38.6
			c-1.1,3.3-2,4.5-3.5,4.5c-1.9,0-2-2.3-2-3.7c-0.1-3.5-0.1-3.9,0-6.9V20.8h6.1v-2h-6.1l0.1-13.7h-4c2.8,9.5-2.2,13.8-12,13.8h-4
			c-0.1-4-0.1-8,0.8-11.1c0.9-3.1,2.4-4.4,4-4.4c1.4,0,1.4,1.3,1.4,1.4c0,0.6-0.5,0.9-0.8,1.2c-0.9,0.7-2.2,1.7-2.2,4.5
			c0,4,3,5.5,5.8,5.5c3.2,0,5.6-2.2,5.6-6.2c0-2.2-0.9-4.4-2.6-5.8c-2.6-2.3-6.2-2.4-7.5-2.4c-6.3,0-11,2.8-13.7,6.3
			c-2.9,3.9-3,7.9-3.1,11h-4v2h4v23.4h-6.1V17.8c-4.6,0.5-7.9,0.7-11.3,0.8c-1.5,0.1-3,0.2-4.7,0.2v1.9h3.9v23.6H71V29.5
			c0-3,0-4.7-0.4-6.4c-0.8-3.2-2.9-5.2-7.2-5.2c-4.4,0-8.2,2-10.9,6.1V1.5c-5.3,0.6-8.2,0.8-11.2,0.9c-1.4,0.1-3,0-5.9,0v0H33
			l-1.6,3.1c-2.9-2.2-5.9-4.1-11-4.1c-10,0-14.5,8.2-14.5,14.8c0,8.5,6.7,11.1,12.7,13.4l3.8,1.4c4.2,1.5,7.8,2.9,7.8,7.3
			c0,5-4.2,7-8.2,7c-3.5,0-7.1-1.4-9.7-4c-2.9-2.9-4-6.6-4.7-9h-2v13.9h2.3l2.3-3c3.7,2.3,6.8,4.1,11.9,4.1
			c11.2,0,15.8-9.5,15.8-16.9c0-9.3-5.9-11.6-11.2-13.5l-5.5-1.9c-4.4-1.6-7.5-2.7-7.5-6.4c0-2.8,2-5.2,6.6-5.2
			c3.4,0,6.6,1.3,8.8,3.3c2.7,2.5,3.8,6,4.3,7.9h1.8v-10h4.9v39.8h-3.8v1.9h16V32.9c0-3.5,0.1-6.3,2-8.6c0.7-0.8,1.4-1.2,2.3-1.2
			c1.7,0,1.8,1.6,1.8,3v20h51.5v-1.9h-3.9V20.9h8.1v14.5c0,3.3-0.1,5.9,0.7,7.7c1.3,3,4.2,3.9,7.5,3.9c3.2,0,5.5-0.8,7.1-1.8
			c2.6-1.7,3.3-3.8,3.9-5.9L131.9,38.6z"/>
	</g>
</g>
<g id="_x3C_Layer_x3E_">
</g>
</svg>
